<svg width="71" height="71" viewBox="0 0 71 71" fill="none" xmlns="http://www.w3.org/2000/svg">
<path d="M51.0312 0C55.5279 0 59.1667 3.63875 59.1667 8.13542V18.3653C59.1667 19.9983 57.8443 21.3237 56.2083 21.3237C54.5724 21.3237 53.25 19.9983 53.25 18.3653V14.7917H5.91667V44.5555C5.91667 46.0879 7.17396 47.3333 8.71525 47.3333H18.0754C19.7114 47.3333 21.0338 48.6587 21.0338 50.2917C21.0338 51.9247 19.7114 53.25 18.0754 53.25H8.71525C3.90796 53.25 0 49.348 0 44.5555V8.13542C0 3.63875 3.63875 0 8.13542 0H51.0312Z" fill="url(#paint0_linear)"/>
<path fill-rule="evenodd" clip-rule="evenodd" d="M26.625 48.8125C26.625 36.5768 36.5768 26.625 48.8125 26.625C61.0482 26.625 71 36.5768 71 48.8125C71 61.0482 61.0482 71 48.8125 71C36.5768 71 26.625 61.0482 26.625 48.8125ZM56.2083 52.8654C56.2083 49.4071 53.395 46.5938 49.9367 46.5938H47.6883C46.6766 46.5938 45.8542 45.7713 45.8542 44.73C45.8542 43.7183 46.6766 42.8958 47.6883 42.8958H53.9896C55.2143 42.8958 56.2083 41.9018 56.2083 40.6771C56.2083 39.4523 55.2143 38.4583 53.9896 38.4583H51.0312V36.2396C51.0312 35.0148 50.0373 34.0208 48.8125 34.0208C47.5877 34.0208 46.5938 35.0148 46.5938 36.2396V38.5708C43.6591 39.0914 41.4167 41.6504 41.4167 44.7596C41.4167 48.2179 44.23 51.0312 47.6883 51.0312H49.9367C50.9484 51.0312 51.7708 51.8537 51.7708 52.895C51.7708 53.9067 50.9484 54.7292 49.9367 54.7292H43.6354C42.4107 54.7292 41.4167 55.7232 41.4167 56.9479C41.4167 58.1727 42.4107 59.1667 43.6354 59.1667H46.5938V61.3825C46.5938 62.6072 47.5877 63.6012 48.8125 63.6012C50.0373 63.6012 51.0312 62.6072 51.0312 61.3825V59.0543C53.9659 58.5336 56.2083 55.9746 56.2083 52.8654Z" fill="url(#paint1_linear)"/>
<defs>
<linearGradient id="paint0_linear" x1="35.5" y1="0" x2="35.5" y2="71" gradientUnits="userSpaceOnUse">
<stop stop-color="white"/>
<stop offset="1" stop-color="#E0DFDF"/>
</linearGradient>
<linearGradient id="paint1_linear" x1="35.5" y1="0" x2="35.5" y2="71" gradientUnits="userSpaceOnUse">
<stop stop-color="white"/>
<stop offset="1" stop-color="#E0DFDF"/>
</linearGradient>
</defs>
</svg>