<svg width="312" height="64" viewBox="0 0 312 64" fill="none" xmlns="http://www.w3.org/2000/svg">
<path d="M275.042 64H36.956L0 32L36.956 3.8147e-06H275.042L312 32L275.042 64Z" fill="#332515"/>
<path d="M309.793 32L273.941 63.0444H38.0599L2.20508 32H309.793Z" fill="#DCB380"/>
<path d="M39.1778 62.022H272.82L307.431 32H309.793L273.938 63.0444H38.0599L2.20508 32H4.56924L39.1778 62.022Z" fill="#B28B5D"/>
<path d="M272.82 1.97924H39.1778L4.56924 32H2.20508L38.0599 0.955536H273.938L309.793 32H307.431L272.82 1.97924Z" fill="#895E29"/>
<path d="M270.982 60.4841H41.0191L8.12305 32.0002L41.0191 3.51619H270.982L303.878 32.0002L270.982 60.4841Z" fill="#895E29"/>
<path d="M41.9562 4.33149L10.002 32L41.9562 59.6697H270.038L301.995 32L270.038 4.33149H41.9562Z" fill="#490600"/>
<path d="M44.5647 6.58737L15.2148 32.0002L44.5647 57.4131H267.435L296.785 32.0002L267.435 6.58737H44.5647Z" fill="#FF6930"/>
<path d="M17.7812 32.0001L45.8467 56.3025H266.151L294.219 32.0001H17.7812Z" fill="#FF9066"/>
<path opacity="0.5" d="M44.5647 6.58737L15.2148 32.0002L44.5647 57.4131L75.3344 32.0002L44.5647 6.58737Z" fill="#F05D25"/>
<path opacity="0.5" d="M267.436 6.58737L296.786 32.0002L267.436 57.4131L236.666 32.0002L267.436 6.58737Z" fill="#F05D25"/>
<path d="M265.642 55.8883L293.199 32.0283L265.642 8.16713H46.358L18.8015 32.0271L46.358 55.8883H265.642ZM267.435 57.4399H44.5647L15.2148 32.0271L44.5647 6.61422H267.435L296.785 32.0271L267.435 57.4399Z" fill="#A42D00"/>
</svg>
