<svg xmlns="http://www.w3.org/2000/svg" width="24" height="24" viewBox="0 0 24 24" fill="none">
<path fill-rule="evenodd" clip-rule="evenodd" d="M6.42045 3C6.80092 3 7.11223 3.31131 7.11223 3.69178C7.11223 3.92865 6.9202 4.12067 6.68333 4.12067H6.15757C5.9207 4.12067 5.72868 3.92865 5.72868 3.69178C5.72868 3.31131 6.03306 3 6.42045 3ZM18.2913 7.10919C18.2913 6.07846 17.7655 5.16531 16.97 4.63263C16.4927 4.30751 15.9185 4.12072 15.3028 4.12072C14.894 4.12072 14.5626 4.45212 14.5626 4.86093V5.94009C14.5626 6.32056 14.2582 6.63187 13.8708 6.63187C13.4904 6.63187 13.1791 6.32056 13.1791 5.94009C13.1791 4.93528 12.3645 4.12072 11.3597 4.12072H8.9316C7.92679 4.12072 7.11223 4.93528 7.11223 5.94009C7.11223 6.32056 6.80092 6.63187 6.42045 6.63187C6.03306 6.63187 5.72868 6.32056 5.72868 5.94009V4.86093C5.72868 4.45212 5.39728 4.12072 4.98847 4.12072C4.16526 4.12072 3.41813 4.4528 2.87857 4.99929C2.33204 5.53885 2 6.28598 2 7.10919C2 7.36136 2.20442 7.56579 2.4566 7.56579H17.8347C18.0869 7.56579 18.2913 7.36136 18.2913 7.10919ZM4.98847 19.2913H7.96858C9.40636 19.2913 10.3774 17.6368 10.3774 16.1991C10.3774 12.7817 13.1514 10.0077 16.5619 10.0077C16.9044 10.0077 17.2403 10.0346 17.5668 10.0871C17.9337 10.1461 18.2913 9.87836 18.2913 9.50679C18.2913 9.19888 18.0417 8.94927 17.7338 8.94927H4C2.89543 8.94927 2 9.8447 2 10.9493V16.3097C2 17.9562 3.34205 19.2913 4.98847 19.2913ZM14.5632 3.69178C14.5632 3.31131 14.2589 3 13.8715 3C13.491 3 13.1797 3.31131 13.1797 3.69178C13.1797 3.92865 13.3717 4.12067 13.6086 4.12067H14.1343C14.3712 4.12067 14.5632 3.92865 14.5632 3.69178ZM16.5626 11.3911C13.9131 11.3911 11.7617 13.5494 11.7617 16.199C11.7617 18.8485 13.9131 20.9999 16.5626 20.9999C19.2121 20.9999 21.3705 18.8485 21.3705 16.199C21.3705 13.5494 19.2121 11.3911 16.5626 11.3911ZM18.2835 14.7471H14.8031C14.3735 14.7471 14.1439 15.253 14.4268 15.5763L16.167 17.5651C16.3662 17.7928 16.7204 17.7928 16.9196 17.5651L18.6598 15.5763C18.9427 15.253 18.7131 14.7471 18.2835 14.7471Z" fill="#778089"/>
</svg>