<svg width="82" height="64" viewBox="0 0 82 64" fill="none" xmlns="http://www.w3.org/2000/svg">
<path d="M73.9783 0H8.02175C3.59839 0 0 3.58864 0 8V18.6667C0 23.0781 3.59839 26.6667 8.02175 26.6667H16.0435V56C16.0435 60.4114 19.6419 64 24.0652 64H41.8913H52.587H57.9348C62.3581 64 65.9565 60.4114 65.9565 56V26.6667H73.9783C78.4016 26.6667 82 23.0781 82 18.6667V8C82 3.58864 78.4016 0 73.9783 0ZM32.087 50.6667C32.087 52.1389 30.8901 53.3334 29.413 53.3334C27.9359 53.3334 26.739 52.1389 26.739 50.6667V45.3334C26.739 43.8613 27.9359 42.6667 29.413 42.6667C30.8901 42.6667 32.087 43.8613 32.087 45.3334V50.6667ZM32.087 34.6667C32.087 36.1389 30.8901 37.3334 29.413 37.3334C27.9359 37.3334 26.739 36.1389 26.739 34.6667V29.3334C26.739 27.8613 27.9359 26.6667 29.413 26.6667C30.8901 26.6667 32.087 27.8613 32.087 29.3334V34.6667ZM49.913 58.6667H44.5652V16.0002H49.913V58.6667ZM76.6522 18.6667C76.6522 20.1371 75.4527 21.3334 73.9783 21.3334H65.9565V16.0002H68.6305C70.1076 16.0002 71.3044 14.8056 71.3044 13.3334C71.3044 11.8613 70.1076 10.6667 68.6305 10.6667H63.2825H52.5868H41.8911H18.7175H13.3695C11.8924 10.6667 10.6956 11.8613 10.6956 13.3334C10.6956 14.8056 11.8924 16.0002 13.3695 16.0002H16.0435V21.3334H8.02175C6.54735 21.3334 5.34778 20.1371 5.34778 18.6667V8C5.34778 6.5296 6.54735 5.33328 8.02175 5.33328H73.9783C75.4527 5.33328 76.6522 6.5296 76.6522 8V18.6667V18.6667Z" fill="url(#paint0_linear)"/>
<defs>
<linearGradient id="paint0_linear" x1="41" y1="0" x2="41" y2="64" gradientUnits="userSpaceOnUse">
<stop stop-color="white"/>
<stop offset="1" stop-color="#E0DFDF"/>
</linearGradient>
</defs>
</svg>