<svg width="11" height="13" viewBox="0 0 11 13" fill="none" xmlns="http://www.w3.org/2000/svg">
<path d="M10.3135 11.9166H9.71162V10.1438C9.71162 9.26192 9.29462 8.41808 8.56629 7.82874L7.54736 7.00375C7.38668 6.87322 7.29819 6.6945 7.29819 6.5C7.29819 6.3055 7.38668 6.12678 7.54736 5.99675L8.56629 5.17185C9.29462 4.58142 9.71162 3.73808 9.71162 2.85625V1.08337H10.3135C10.6464 1.08337 10.9154 0.840668 10.9154 0.541634C10.9154 0.242699 10.6464 0 10.3135 0H0.683846C0.351035 0 0.0820312 0.242699 0.0820312 0.541634C0.0820312 0.840668 0.351035 1.08337 0.683846 1.08337H1.28577V2.85625C1.28577 3.73808 1.70278 4.58192 2.4311 5.17126L3.45004 5.99625C3.61071 6.12678 3.6992 6.3055 3.6992 6.5C3.6992 6.6945 3.61071 6.87322 3.45004 7.00325L2.4311 7.82815C1.70278 8.41858 1.28577 9.26192 1.28577 10.1438V11.9166H0.683846C0.351035 11.9166 0.0820312 12.1593 0.0820312 12.4584C0.0820312 12.7573 0.351035 13 0.683846 13H10.3135C10.6464 13 10.9154 12.7573 10.9154 12.4584C10.9154 12.1593 10.6464 11.9166 10.3135 11.9166ZM3.09133 10.199C3.09133 9.80088 3.26346 9.42716 3.57644 9.14548L5.17966 7.70248C5.3561 7.54379 5.64196 7.54379 5.81828 7.70248L7.42162 9.14548C7.73459 9.42716 7.90673 9.80088 7.90673 10.199V11.9166H3.09133V10.199Z" fill="#00A1FC"/>
</svg>
